<?xml version="1.0" encoding="utf-8"?>
<!-- Generator: Adobe Illustrator 22.1.0, SVG Export Plug-In . SVG Version: 6.00 Build 0)  -->
<svg version="1.1" id="Layer_1" xmlns="http://www.w3.org/2000/svg" xmlns:xlink="http://www.w3.org/1999/xlink" x="0px" y="0px"
	 viewBox="0 0 161.1 242.1" style="enable-background:new 0 0 161.1 242.1;" xml:space="preserve">
<style type="text/css">
	.st0{fill:none;}
	.st1{fill:#F2F2F2;}
	.st2{fill:#CCCCCC;}
	.st3{fill:#E6E6E6;}
	.st4{fill:#2D1214;}
	.st5{fill:#817172;}
	.st6{fill:#574143;}
	.st7{fill:#E4BCBA;}
	.st8{fill:#AB8D8B;}
	.st9{fill:#EFD7D6;}
</style>
<g>
	<path class="st0" d="M71.4,161.8c-0.7,0-1.3,0-2-0.1C70.1,161.7,70.8,161.8,71.4,161.8z"/>
	<path class="st1" d="M134.8,7.6l-0.4,0c-0.1,4.2-24.2,7.6-53.9,7.6s-53.9-3.4-53.9-7.6l-0.4,0c0,0-84,154.2,48.5,154.2h11.7
		C218.8,161.8,134.8,7.6,134.8,7.6z"/>
	<g>
		<ellipse class="st2" cx="80.6" cy="7.6" rx="53.9" ry="7.6"/>
		<ellipse class="st1" cx="80.6" cy="7.6" rx="45.6" ry="6.4"/>
	</g>
	<g>
		<path class="st3" d="M111.7,214.6c-7.9-0.6-12.4-3.9-12.4-3.9l-0.3-0.1c0.1,0.1,0.2,0.1,0.2,0.1s-12.9-6.7-12.9-26.4
			c0-11.3,2.9-18.5,5.5-22.6c-1.8,0.1-3.5,0.1-5.4,0.1H74.7c-3.6,0-7-0.1-10.3-0.3c2.6,4.1,5.6,11.3,5.6,22.8
			c0,19.7-12.9,26.4-12.9,26.4s0.1,0,0.2-0.1l-0.3,0.1c0,0-4.5,3.4-12.4,3.9s-38.8,2.8-38.8,11.2s28.9,16.3,68.7,16.3
			c1.3,0,2.4,0,3.6-0.1c1.1,0.1,2.3,0.1,3.6,0.1c39.7,0,68.7-7.9,68.7-16.3S119.5,215.2,111.7,214.6z"/>
		<path class="st2" d="M91.9,203.6c-2.3,0.6-5.2,1-8.5,1H73c-3.4,0-6.2-0.4-8.5-1c-3.5,5-7.3,7-7.3,7s5.3,3.9,15.9,3.9h10.3
			c10.5,0,15.9-3.9,15.9-3.9S95.4,208.7,91.9,203.6z"/>
		<path class="st2" d="M146.6,221.2c-9.1,6.1-33.7,11-64.8,11c-1.3,0-2.4,0-3.6-0.1c-1.1,0.1-2.3,0.1-3.6,0.1
			c-31.2,0-55.7-4.8-64.8-11c-2.4,1.3-3.9,2.8-3.9,4.7c0,8.4,28.9,16.3,68.7,16.3c1.3,0,2.4,0,3.6-0.1c1.1,0.1,2.3,0.1,3.6,0.1
			c39.7,0,68.7-7.9,68.7-16.3C150.4,224,149,222.5,146.6,221.2z"/>
		<path class="st2" d="M74.7,171.8h11.7c0.3,0,0.7,0,1.3,0c1.1-4.5,2.6-7.8,4.1-10.1c-1.8,0.1-3.5,0.1-5.4,0.1H74.7
			c-3.6,0-7-0.1-10.3-0.3c1.5,2.3,3.1,5.7,4.2,10.3C71.9,171.8,74.1,171.8,74.7,171.8z"/>
		<g>
			<path class="st3" d="M9.8,221.2c9.1,6.1,33.7,11,64.8,11c1.3,0,2.4,0,3.6-0.1c1.1,0.1,2.3,0.1,3.6,0.1c31.2,0,55.7-4.8,64.8-11
				c0,0,0,0,0.1,0c-8.5-4.7-28.8-6.1-34.9-6.6c-7.9-0.6-12.4-3.9-12.4-3.9l-0.1,0c0,0,0,0,0,0s-5.3,3.9-15.9,3.9H73
				c-10.5,0-15.9-3.9-15.9-3.9s0,0,0,0l-0.1,0c0,0-4.5,3.4-12.4,3.9C38.5,215,18.3,216.5,9.8,221.2C9.8,221.2,9.8,221.2,9.8,221.2z"
				/>
			<path class="st3" d="M147.5,221.7c0.1,0.1,0.2,0.1,0.3,0.2C147.7,221.8,147.6,221.8,147.5,221.7z"/>
			<path class="st3" d="M148.3,222.3c0.1,0.1,0.2,0.2,0.3,0.2C148.5,222.4,148.4,222.3,148.3,222.3z"/>
			<path class="st3" d="M149.2,223.1c-0.1-0.1-0.2-0.2-0.2-0.3C149.1,222.9,149.1,223,149.2,223.1z"/>
			<path class="st3" d="M150.3,224.9c0,0.1,0.1,0.2,0.1,0.2C150.3,225,150.3,225,150.3,224.9z"/>
			<path class="st3" d="M150,224.2c0,0.1,0.1,0.2,0.1,0.3C150.1,224.3,150,224.2,150,224.2z"/>
			<path class="st3" d="M149.5,223.5c0.1,0.1,0.1,0.2,0.2,0.3C149.7,223.7,149.6,223.6,149.5,223.5z"/>
			<path class="st3" d="M6.6,223.7c0.1-0.1,0.1-0.2,0.2-0.3C6.8,223.6,6.7,223.7,6.6,223.7z"/>
			<path class="st3" d="M6.3,224.4c0-0.1,0.1-0.2,0.1-0.3C6.4,224.2,6.3,224.3,6.3,224.4z"/>
			<path class="st3" d="M6,225.1c0-0.1,0-0.2,0.1-0.2C6.1,225,6,225,6,225.1z"/>
			<path class="st3" d="M7.8,222.5c0.1-0.1,0.2-0.2,0.3-0.2C8,222.3,7.9,222.4,7.8,222.5z"/>
			<path class="st3" d="M8.6,221.9c0.1-0.1,0.2-0.1,0.3-0.2C8.8,221.8,8.7,221.8,8.6,221.9z"/>
			<path class="st3" d="M7.4,222.9c-0.1,0.1-0.2,0.2-0.2,0.3C7.2,223,7.3,222.9,7.4,222.9z"/>
		</g>
	</g>
	<path class="st4" d="M146,142.1c0.1-0.1,0.2-0.2,0.4-0.4c0.5-0.5,0.9-1,1.3-1.5c0.1-0.1,0.2-0.2,0.3-0.4c0.3-0.4,0.7-0.8,1-1.2
		c0.1-0.2,0.3-0.3,0.4-0.5c0.3-0.4,0.6-0.8,0.9-1.2c0.1-0.2,0.2-0.3,0.3-0.5c0.4-0.5,0.7-1.1,1.1-1.6c0.1-0.1,0.1-0.2,0.2-0.3
		c0.3-0.5,0.6-1,0.9-1.4c0.1-0.2,0.2-0.4,0.3-0.5c0.2-0.4,0.5-0.8,0.7-1.3c0.1-0.2,0.2-0.4,0.3-0.5c0.3-0.6,0.6-1.2,0.9-1.8
		c0,0,0,0,0,0c0.3-0.6,0.5-1.2,0.8-1.8c0.1-0.2,0.2-0.4,0.2-0.6c0.2-0.4,0.4-0.9,0.5-1.3c0.1-0.2,0.2-0.4,0.2-0.6
		c0.2-0.5,0.4-1.1,0.6-1.6c0-0.1,0.1-0.2,0.1-0.3c0.2-0.6,0.4-1.3,0.6-1.9c0.1-0.2,0.1-0.4,0.2-0.5c0.1-0.5,0.3-1,0.4-1.4
		c0.1-0.2,0.1-0.4,0.2-0.6c0.1-0.5,0.3-1,0.4-1.6c0-0.1,0.1-0.3,0.1-0.4c0.1-0.7,0.3-1.3,0.4-2c0-0.2,0.1-0.3,0.1-0.5
		c0.1-0.5,0.2-1,0.3-1.6c0-0.2,0.1-0.4,0.1-0.6c0.1-0.5,0.2-1,0.2-1.6c0-0.2,0-0.3,0.1-0.5c0.1-0.7,0.2-1.4,0.2-2.1
		c0-0.1,0-0.2,0-0.4c0.1-0.6,0.1-1.1,0.2-1.7c0-0.2,0-0.4,0-0.6c0-0.5,0.1-1,0.1-1.6c0-0.2,0-0.4,0-0.6c0-0.7,0.1-1.4,0.1-2.1
		c0,0,0-0.1,0-0.1c0-0.7,0-1.3,0-2c0-0.2,0-0.4,0-0.6c0-0.5,0-1.1,0-1.6c0-0.2,0-0.4,0-0.6c0-0.7,0-1.4-0.1-2.1c0,0,0,0,0,0
		c0-0.7-0.1-1.5-0.1-2.2c0-0.2,0-0.4,0-0.5c0-0.6-0.1-1.1-0.1-1.7c0-0.2,0-0.4,0-0.6c-0.1-0.6-0.1-1.3-0.2-1.9c0-0.1,0-0.2,0-0.2
		c-0.1-0.7-0.2-1.5-0.2-2.2c0-0.1,0-0.3-0.1-0.4c-0.1-0.6-0.1-1.2-0.2-1.8c0-0.2-0.1-0.4-0.1-0.6c-0.1-0.6-0.2-1.2-0.3-1.8
		c0-0.1,0-0.2-0.1-0.4c-0.1-0.7-0.2-1.5-0.4-2.2c0-0.1,0-0.2,0-0.3c-0.1-0.6-0.2-1.3-0.3-1.9c0-0.2-0.1-0.4-0.1-0.5
		c-0.1-0.6-0.2-1.2-0.3-1.8c0-0.1-0.1-0.3-0.1-0.4c-0.1-0.7-0.3-1.5-0.5-2.2c0,0,0,0,0,0c-0.2-0.7-0.3-1.4-0.5-2.1
		c0-0.2-0.1-0.3-0.1-0.5c-0.1-0.6-0.3-1.2-0.4-1.8c0-0.1-0.1-0.3-0.1-0.4c-0.3-1.4-0.7-2.9-1.1-4.3c0-0.1-0.1-0.2-0.1-0.4
		c-0.2-0.6-0.3-1.2-0.5-1.8c0-0.1-0.1-0.3-0.1-0.4c-0.4-1.4-0.8-2.8-1.2-4.2c0-0.1-0.1-0.2-0.1-0.3c-0.2-0.6-0.4-1.2-0.5-1.8
		c0-0.1-0.1-0.2-0.1-0.4c-0.2-0.7-0.4-1.3-0.6-2c0,0-0.1,0-0.1,0c-2.3-5.7-10.3-29.5-25.2-16.1c-10,9-5.5,39.5-7.6,50.9c0,0,0,0,0,0
		c-5,26.3-26,58.7-73.2,47.1c-9.6-2.4-25.6-15.7-35.1-18.5c-10.6-3.1-6.7,11.6-5.3,15.4c0,0,0,0,0,0c8.5,18.2,27,31.5,62.5,32.9
		c0.3,0,0.7,0,1,0c0.6,0,1.3,0,2,0.1c1.1,0,2.2,0,3.3,0h11.7c1.2,0,2.4,0,3.6,0c0.4,0,0.7,0,1.1,0c0.9,0,1.7-0.1,2.5-0.1
		c0.4,0,0.7,0,1.1-0.1c1-0.1,1.9-0.1,2.9-0.2c0.2,0,0.3,0,0.5,0c1.1-0.1,2.2-0.2,3.2-0.3c0.3,0,0.6-0.1,0.9-0.1
		c0.8-0.1,1.6-0.2,2.3-0.3c0.3,0,0.7-0.1,1-0.1c0.8-0.1,1.6-0.2,2.4-0.4c0.2,0,0.4-0.1,0.7-0.1c1-0.2,1.9-0.3,2.9-0.5
		c0.2,0,0.5-0.1,0.7-0.1c0.7-0.1,1.4-0.3,2.1-0.5c0.3-0.1,0.6-0.1,0.9-0.2c0.7-0.2,1.4-0.3,2-0.5c0.2-0.1,0.5-0.1,0.7-0.2
		c0.9-0.2,1.7-0.5,2.6-0.7c0.2-0.1,0.3-0.1,0.5-0.2c0.7-0.2,1.4-0.4,2-0.7c0.3-0.1,0.5-0.2,0.8-0.3c0.6-0.2,1.2-0.4,1.7-0.6
		c0.2-0.1,0.5-0.2,0.7-0.3c0.8-0.3,1.5-0.6,2.3-1c0.1,0,0.1-0.1,0.2-0.1c0.7-0.3,1.3-0.6,2-0.9c0.2-0.1,0.4-0.2,0.7-0.3
		c0.5-0.3,1-0.5,1.5-0.8c0.2-0.1,0.4-0.2,0.6-0.3c0.6-0.3,1.2-0.7,1.8-1c0.1,0,0.1-0.1,0.2-0.1c0.6-0.4,1.3-0.8,1.9-1.2
		c0.2-0.1,0.4-0.2,0.5-0.4c0.4-0.3,0.9-0.6,1.3-0.9c0.2-0.1,0.4-0.3,0.6-0.4c0.5-0.3,0.9-0.7,1.4-1.1c0.1-0.1,0.2-0.2,0.3-0.3
		c0.5-0.4,1.1-0.9,1.6-1.4c0.1-0.1,0.3-0.3,0.4-0.4c0.4-0.3,0.8-0.7,1.1-1.1c0.2-0.2,0.3-0.3,0.5-0.5
		C145.3,142.9,145.7,142.5,146,142.1z"/>
	<path class="st2" d="M134.8,7.6l-0.4,0c0,0.9-1.2,1.8-3.5,2.7c16.7,36.9,54.5,141.5-54.6,141.5H64.7c-24.7,0-41.8-5.4-53.4-14.1
		c10.8,14.4,30.3,24.1,63.4,24.1h11.7C218.8,161.8,134.8,7.6,134.8,7.6z"/>
	<g>
		<path class="st3" d="M12.9,139.8c-0.1-0.1-0.2-0.2-0.3-0.3C12.8,139.6,12.9,139.7,12.9,139.8z"/>
		<path class="st3" d="M14.2,141.2c-0.1-0.1-0.2-0.2-0.3-0.3C14,141,14.1,141.1,14.2,141.2z"/>
		<path class="st3" d="M55.2,160.5c0.3,0,0.7,0.1,1,0.1C55.8,160.6,55.5,160.6,55.2,160.5z"/>
		<path class="st3" d="M60.9,161.2c0.4,0,0.8,0.1,1.2,0.1C61.7,161.2,61.3,161.2,60.9,161.2z"/>
		<path class="st3" d="M58,160.9c0.4,0,0.8,0.1,1.1,0.1C58.7,161,58.4,160.9,58,160.9z"/>
		<path class="st3" d="M15.2,142.3c0.1,0.1,0.2,0.2,0.3,0.3C15.4,142.5,15.3,142.4,15.2,142.3z"/>
		<path class="st3" d="M63.9,161.4c0.4,0,0.8,0.1,1.2,0.1C64.7,161.5,64.3,161.5,63.9,161.4z"/>
		<path class="st3" d="M11.7,138.3c-0.1-0.1-0.1-0.2-0.2-0.2C11.6,138.1,11.7,138.2,11.7,138.3z"/>
		<path class="st3" d="M134,8.6C134,8.6,134,8.6,134,8.6C134,8.6,134,8.6,134,8.6z"/>
		<path class="st3" d="M134.2,8.4c0,0,0-0.1,0.1-0.1C134.2,8.3,134.2,8.3,134.2,8.4z"/>
		<path class="st3" d="M134.4,8C134.4,8,134.4,8,134.4,8C134.4,8,134.4,8,134.4,8z"/>
		<path class="st3" d="M64.7,151.8h11.7c109.1,0,71.3-104.7,54.6-141.5c0.1,0,0.1,0,0.2-0.1c-1.4,0.5-3.2,1-5.3,1.5
			c17.4,43.4,39.8,130.1-59.5,130.1H54.7c-20.6,0-36-3.7-47.2-10c1.1,2.1,2.4,4.1,3.8,6C22.9,146.5,40.1,151.8,64.7,151.8z"/>
		<path class="st3" d="M133.6,9C133.6,9,133.6,9,133.6,9C133.6,9,133.6,9,133.6,9z"/>
		<path class="st3" d="M132.4,9.7c0.1,0,0.1-0.1,0.2-0.1C132.5,9.6,132.4,9.6,132.4,9.7z"/>
		<path class="st3" d="M133,9.4c0,0,0.1-0.1,0.1-0.1C133.1,9.3,133,9.3,133,9.4z"/>
		<path class="st3" d="M131.7,10c0.1,0,0.2-0.1,0.2-0.1C131.9,9.9,131.8,9.9,131.7,10z"/>
		<path class="st3" d="M43.9,158.2c0.3,0.1,0.6,0.2,0.9,0.2C44.5,158.4,44.2,158.3,43.9,158.2z"/>
		<path class="st3" d="M21.3,147.8c0.1,0.1,0.2,0.2,0.3,0.3C21.6,147.9,21.4,147.8,21.3,147.8z"/>
		<path class="st3" d="M24.6,150c0.2,0.1,0.4,0.2,0.5,0.3C25,150.3,24.8,150.2,24.6,150z"/>
		<path class="st3" d="M22.9,148.9c0.2,0.1,0.3,0.2,0.5,0.3C23.3,149.1,23.1,149,22.9,148.9z"/>
		<path class="st3" d="M26.4,151.1c0.2,0.1,0.4,0.2,0.6,0.3C26.8,151.3,26.6,151.2,26.4,151.1z"/>
		<path class="st3" d="M16.6,143.8c0.1,0.1,0.1,0.1,0.2,0.2C16.8,143.9,16.7,143.8,16.6,143.8z"/>
		<path class="st3" d="M52.5,160.1c0.2,0,0.4,0.1,0.6,0.1C52.9,160.2,52.7,160.1,52.5,160.1z"/>
		<path class="st3" d="M68.2,161.7c-0.4,0-0.8,0-1.2-0.1C67.4,161.6,67.8,161.6,68.2,161.7z"/>
		<path class="st3" d="M28.3,152.2c0.2,0.1,0.4,0.2,0.5,0.3C28.6,152.4,28.4,152.3,28.3,152.2z"/>
		<path class="st3" d="M71.4,161.8c-0.4,0-0.7,0-1,0C70.7,161.7,71.1,161.8,71.4,161.8z"/>
		<path class="st3" d="M46.4,158.9c0.3,0.1,0.5,0.1,0.8,0.2C47,159,46.7,158.9,46.4,158.9z"/>
		<path class="st3" d="M30.4,153.3c0.1,0.1,0.2,0.1,0.4,0.2C30.6,153.4,30.5,153.3,30.4,153.3z"/>
		<path class="st3" d="M41.5,157.6c0.3,0.1,0.6,0.2,0.9,0.3C42.1,157.7,41.8,157.6,41.5,157.6z"/>
		<path class="st3" d="M49.3,159.5c0.2,0,0.3,0.1,0.5,0.1C49.6,159.6,49.5,159.5,49.3,159.5z"/>
		<path class="st3" d="M39.2,156.8c0.3,0.1,0.6,0.2,0.8,0.3C39.7,157,39.4,156.9,39.2,156.8z"/>
		<path class="st3" d="M34.8,155.3c0.2,0.1,0.4,0.1,0.5,0.2C35.2,155.4,35,155.3,34.8,155.3z"/>
		<path class="st3" d="M37,156.1c0.2,0.1,0.5,0.2,0.7,0.3C37.4,156.2,37.2,156.2,37,156.1z"/>
	</g>
	<path class="st4" d="M146,142.1c7.7-8.1,12.1-18.7,13.9-29.6c1.8-11.1,1.2-22.5-0.5-33.5c-0.9-5.6-2-11.1-3.4-16.6
		c-1.2-4.6-2.5-9.3-4.1-13.7c-2-5.3-4.3-10.9-8.3-15c-1.9-2-4.4-3.7-7.3-3.8c-3.5-0.2-6.9,1.9-9.3,4.3c-2.3,2.2-3.6,5.2-4.4,8.2
		c-1.1,3.8-1.6,7.7-1.9,11.6c-0.6,8-0.2,16.1-0.5,24.1c-0.2,6.3-1.6,12.3-3.7,18.2c-2.3,6.5-5.6,12.6-9.8,18.1
		c-4.4,5.7-9.9,10.5-16.2,14c-7.2,3.9-15.3,5.8-23.5,6c-4.9,0.1-9.8-0.3-14.7-1.2c-4.4-0.8-8.5-1.8-12.4-3.9
		c-8.2-4.2-15.5-9.9-23.8-13.9c-2.6-1.3-6.5-3.3-9.4-2c-2.4,1.1-2.6,4.2-2.6,6.5c0.1,2.7,0.7,5.4,1.5,7.9c0.9,2.8,2.6,5.5,4.2,8
		c4,5.9,9.2,10.9,15.2,14.6c7.3,4.6,15.7,7.4,24.1,9.1c9.1,1.8,18.3,2.3,27.6,2.3c7.4,0,14.9,0.1,22.3-0.5c11.7-1,23.4-3.5,33.8-9.1
		C137.8,149.5,142.2,146.1,146,142.1z"/>
	<path class="st2" d="M134.8,7.6l-0.4,0c0,0.9-1.2,1.8-3.5,2.7c16.7,36.9,54.5,141.5-54.6,141.5H64.7c-24.7,0-41.8-5.4-53.4-14.1
		c10.8,14.4,30.3,24.1,63.4,24.1h11.7C218.8,161.8,134.8,7.6,134.8,7.6z"/>
	<path class="st0" d="M38.7,156.7C38.7,156.7,38.6,156.7,38.7,156.7C38.6,156.7,38.7,156.7,38.7,156.7z"/>
	<path class="st0" d="M45.2,158.6c0,0-0.1,0-0.1,0C45.1,158.6,45.2,158.6,45.2,158.6z"/>
	<path class="st0" d="M74.7,161.8h2.1c-6.9,0-13.7-0.3-20.5-1.1C61.9,161.4,68,161.8,74.7,161.8z"/>
	<path class="st0" d="M86.4,161.8c4.5,0,8.7-0.2,12.7-0.5c-4.5,0.4-9,0.5-13.5,0.5H86.4z"/>
	<path class="st0" d="M47.9,159.2c-0.2,0-0.4-0.1-0.7-0.1C47.4,159.1,47.7,159.2,47.9,159.2z"/>
	<path class="st0" d="M55.8,160.6c-0.8-0.1-1.6-0.2-2.3-0.3C54.2,160.4,55,160.5,55.8,160.6z"/>
	<path class="st0" d="M51.6,159.9c-0.6-0.1-1.2-0.2-1.8-0.3C50.4,159.7,51,159.8,51.6,159.9z"/>
	<path class="st5" d="M146,142.1c7.7-8.1,12.1-18.7,13.9-29.6c1.8-11.1,1.2-22.5-0.5-33.5c-0.9-5.6-2-11.1-3.4-16.6
		c-1.2-4.6-2.5-9.3-4.1-13.7c-2-5.3-4.3-10.9-8.3-15c-1.2-1.3-2.7-2.4-4.3-3.1c16.4,45.3,30.1,121.3-62.9,121.3H64.7
		c-24.7,0-41.8-5.4-53.4-14.1c6,8.1,14.9,14.7,27.3,18.9c0,0,0,0,0.1,0c2,0.7,4.2,1.3,6.4,1.9c0,0,0.1,0,0.1,0
		c0.7,0.2,1.3,0.3,2,0.5c0.2,0,0.4,0.1,0.7,0.1c0.6,0.1,1.3,0.3,1.9,0.4c0.6,0.1,1.2,0.2,1.8,0.3c0.6,0.1,1.2,0.2,1.9,0.3
		c0.8,0.1,1.5,0.2,2.3,0.3c0.2,0,0.3,0,0.5,0.1c6.8,0.9,13.6,1.1,20.5,1.1h8.8c4.5,0,9-0.1,13.5-0.5c0,0,0,0,0,0
		c11.7-1,23.4-3.5,33.8-9.1C137.8,149.5,142.2,146.1,146,142.1z"/>
	<path class="st0" d="M120.6,143.4c-0.2,0.1-0.4,0.2-0.6,0.3C120.2,143.5,120.4,143.4,120.6,143.4z"/>
	<path class="st0" d="M129.1,138.2c-0.3,0.2-0.6,0.4-0.8,0.6C128.6,138.6,128.8,138.4,129.1,138.2z"/>
	<path class="st0" d="M131.4,136.5c-0.3,0.2-0.5,0.4-0.8,0.6C130.9,136.9,131.1,136.7,131.4,136.5z"/>
	<path class="st0" d="M117.7,144.7c-0.3,0.1-0.7,0.3-1,0.4C117,144.9,117.4,144.8,117.7,144.7z"/>
	<path class="st0" d="M126.7,139.9c-0.3,0.2-0.5,0.4-0.8,0.5C126.1,140.3,126.4,140.1,126.7,139.9z"/>
	<path class="st0" d="M87.2,151.4c-0.5,0-1.1,0.1-1.6,0.1C86.1,151.5,86.7,151.5,87.2,151.4z"/>
	<path class="st0" d="M114.7,145.9c-0.4,0.1-0.8,0.3-1.2,0.4C113.9,146.2,114.3,146,114.7,145.9z"/>
	<path class="st0" d="M99.6,149.9c-0.4,0.1-0.7,0.1-1.1,0.2C98.8,150,99.2,150,99.6,149.9z"/>
	<path class="st0" d="M95.6,150.5c-0.5,0.1-1,0.1-1.5,0.2C94.7,150.7,95.2,150.6,95.6,150.5z"/>
	<path class="st0" d="M91.5,151c-0.5,0.1-1.1,0.1-1.6,0.2C90.5,151.1,91,151.1,91.5,151z"/>
	<path class="st0" d="M133.5,134.7c-0.2,0.2-0.4,0.4-0.6,0.6C133,135.1,133.3,134.9,133.5,134.7z"/>
	<path class="st0" d="M103.8,149.1c-0.2,0-0.3,0.1-0.5,0.1C103.5,149.2,103.6,149.1,103.8,149.1z"/>
	<path class="st0" d="M111.5,147c-0.4,0.1-0.8,0.3-1.2,0.4C110.7,147.2,111.1,147.1,111.5,147z"/>
	<path class="st0" d="M108,148c-0.4,0.1-0.8,0.2-1.1,0.3C107.2,148.2,107.6,148.1,108,148z"/>
	<path class="st0" d="M123.8,141.6c-0.2,0.1-0.3,0.2-0.5,0.3C123.5,141.8,123.6,141.7,123.8,141.6z"/>
	<path class="st0" d="M149.9,103.1c0,0.1,0,0.2,0,0.3C149.9,103.3,149.9,103.2,149.9,103.1z"/>
	<path class="st0" d="M135.4,132.9c-0.1,0.1-0.1,0.1-0.2,0.2C135.3,133,135.3,132.9,135.4,132.9z"/>
	<path class="st0" d="M148.7,108.6c-0.1,0.3-0.2,0.6-0.2,0.9C148.6,109.1,148.7,108.9,148.7,108.6z"/>
	<path class="st0" d="M150.9,94.4c0,0.4,0,0.7-0.1,1.1C150.9,95.1,150.9,94.7,150.9,94.4z"/>
	<path class="st0" d="M148,111.1c-0.1,0.3-0.2,0.6-0.3,0.9C147.8,111.7,147.9,111.4,148,111.1z"/>
	<path class="st0" d="M151,91.6c0,0.3,0,0.7,0,1C151,92.3,151,92,151,91.6z"/>
	<path class="st0" d="M150.7,97.1c0,0.3-0.1,0.7-0.1,1C150.6,97.8,150.7,97.4,150.7,97.1z"/>
	<path class="st0" d="M149.3,106c0,0.2-0.1,0.4-0.2,0.7C149.2,106.5,149.3,106.2,149.3,106z"/>
	<path class="st0" d="M139.5,128.2c-0.2,0.2-0.3,0.5-0.5,0.7C139.1,128.6,139.3,128.4,139.5,128.2z"/>
	<path class="st0" d="M137.7,130.4c-0.1,0.2-0.3,0.3-0.4,0.5C137.4,130.7,137.5,130.6,137.7,130.4z"/>
	<path class="st0" d="M147.2,113.6c-0.1,0.3-0.2,0.6-0.3,0.8C147,114.2,147.1,113.9,147.2,113.6z"/>
	<path class="st0" d="M141,126c-0.2,0.3-0.3,0.5-0.5,0.8C140.7,126.5,140.9,126.2,141,126z"/>
	<path class="st0" d="M146.2,116.2c-0.1,0.2-0.2,0.4-0.3,0.7C146.1,116.7,146.1,116.4,146.2,116.2z"/>
	<path class="st0" d="M143.7,121.6c-0.1,0.2-0.2,0.4-0.3,0.6C143.5,122,143.6,121.8,143.7,121.6z"/>
	<path class="st0" d="M142.4,123.8c-0.2,0.3-0.3,0.5-0.5,0.8C142.1,124.3,142.3,124,142.4,123.8z"/>
	<path class="st0" d="M150.4,99.9c0,0.3-0.1,0.6-0.1,0.9C150.3,100.5,150.3,100.2,150.4,99.9z"/>
	<path class="st0" d="M148.7,64.3c0.1,0.5,0.2,1,0.3,1.5C148.9,65.3,148.8,64.8,148.7,64.3z"/>
	<path class="st0" d="M149.8,70.8c0.1,0.5,0.1,1,0.2,1.5C149.9,71.7,149.8,71.3,149.8,70.8z"/>
	<path class="st0" d="M149.2,67.1c0.1,0.5,0.2,0.9,0.2,1.4C149.4,68,149.3,67.6,149.2,67.1z"/>
	<path class="st0" d="M148.2,61.6c0.1,0.5,0.2,1,0.3,1.5C148.4,62.6,148.3,62.1,148.2,61.6z"/>
	<path class="st0" d="M145.8,51.3c0.4,1.4,0.7,2.8,1.1,4.2C146.5,54.1,146.1,52.7,145.8,51.3z"/>
	<path class="st0" d="M147.6,58.8c0.1,0.5,0.2,1,0.3,1.6C147.8,59.9,147.7,59.3,147.6,58.8z"/>
	<path class="st0" d="M147,56.1c0.1,0.5,0.3,1.1,0.4,1.6C147.2,57.2,147.1,56.7,147,56.1z"/>
	<path class="st0" d="M151.1,85.4c0,0.3,0,0.6,0,0.8C151.1,85.9,151.1,85.6,151.1,85.4z"/>
	<path class="st0" d="M145.2,49.3c0.2,0.6,0.3,1.3,0.5,1.9C145.6,50.5,145.4,49.9,145.2,49.3z"/>
	<path class="st0" d="M150.2,73.9c0.1,0.4,0.1,0.8,0.1,1.2C150.3,74.7,150.2,74.3,150.2,73.9z"/>
	<path class="st0" d="M151.1,88.9c0,0.3,0,0.5,0,0.8C151.1,89.4,151.1,89.2,151.1,88.9z"/>
	<path class="st0" d="M150.9,82.3c0,0.4,0,0.8,0.1,1.1C151,83.1,150.9,82.7,150.9,82.3z"/>
	<path class="st0" d="M150.5,76.7c0,0.4,0.1,0.8,0.1,1.3C150.6,77.5,150.5,77.1,150.5,76.7z"/>
	<path class="st0" d="M150.7,79.5c0,0.4,0.1,0.8,0.1,1.2C150.8,80.3,150.8,79.9,150.7,79.5z"/>
	<path class="st0" d="M41.1,149.8c-0.3-0.1-0.7-0.1-1.1-0.2C40.4,149.7,40.7,149.8,41.1,149.8z"/>
	<path class="st0" d="M37.4,149.1c-0.3-0.1-0.6-0.1-0.9-0.2C36.8,149,37.1,149,37.4,149.1z"/>
	<path class="st0" d="M45.3,150.5c-0.5-0.1-1.1-0.1-1.6-0.2C44.3,150.4,44.8,150.4,45.3,150.5z"/>
	<path class="st0" d="M82.5,151.7c-0.5,0-1,0-1.5,0.1C81.6,151.7,82,151.7,82.5,151.7z"/>
	<path class="st0" d="M49.3,151c-0.6-0.1-1.2-0.1-1.7-0.2C48.2,150.9,48.7,150.9,49.3,151z"/>
	<path class="st0" d="M64.7,151.8c-1.5,0-3.1,0-4.5-0.1C61.7,151.8,63.2,151.8,64.7,151.8z"/>
	<path class="st0" d="M53.8,151.4c-0.7-0.1-1.4-0.1-2.1-0.2C52.3,151.3,53,151.4,53.8,151.4z"/>
	<path class="st0" d="M59.3,151.7c-1.2,0-2.3-0.1-3.5-0.1C57,151.6,58.1,151.7,59.3,151.7z"/>
	<path class="st0" d="M30.2,147.2c-0.1,0-0.2-0.1-0.3-0.1C30,147.1,30.1,147.1,30.2,147.2z"/>
	<path class="st0" d="M139.3,30.5c1.3,3.5,2.5,7.1,3.7,10.9C141.8,37.7,140.5,34,139.3,30.5z"/>
	<path class="st0" d="M21.3,143.7c-0.1,0-0.1-0.1-0.2-0.1C21.1,143.6,21.2,143.7,21.3,143.7z"/>
	<path class="st0" d="M143.8,44.2c0.2,0.6,0.4,1.2,0.5,1.8C144.2,45.4,144,44.8,143.8,44.2z"/>
	<path class="st0" d="M24.2,145c-0.1,0-0.2-0.1-0.3-0.1C24,144.9,24.1,144.9,24.2,145z"/>
	<path class="st0" d="M144.5,46.8c0.2,0.6,0.3,1.2,0.5,1.8C144.9,48,144.7,47.4,144.5,46.8z"/>
	<path class="st0" d="M27.1,146.1c-0.1,0-0.2-0.1-0.2-0.1C26.9,146.1,27,146.1,27.1,146.1z"/>
	<path class="st0" d="M33.9,148.2c-0.2-0.1-0.5-0.1-0.8-0.2C33.4,148.1,33.6,148.2,33.9,148.2z"/>
	<path class="st0" d="M143,41.7c0.2,0.6,0.4,1.3,0.6,1.9C143.4,43,143.2,42.3,143,41.7z"/>
	<path class="st6" d="M151.1,86.2c0-0.3,0-0.6,0-0.8c0-0.6,0-1.3-0.1-1.9c0-0.4,0-0.8-0.1-1.1c0-0.5-0.1-1.1-0.1-1.6
		c0-0.4-0.1-0.8-0.1-1.2c0-0.5-0.1-1-0.1-1.5c0-0.4-0.1-0.8-0.1-1.3c-0.1-0.5-0.1-1-0.2-1.5c0-0.4-0.1-0.8-0.1-1.2
		c-0.1-0.5-0.1-1.1-0.2-1.6c-0.1-0.5-0.1-1-0.2-1.5c-0.1-0.8-0.2-1.5-0.3-2.3c-0.1-0.5-0.2-0.9-0.2-1.4c-0.1-0.4-0.2-0.9-0.2-1.3
		c-0.1-0.5-0.2-1-0.3-1.5c-0.1-0.4-0.2-0.8-0.2-1.3c-0.1-0.5-0.2-1-0.3-1.5c-0.1-0.4-0.2-0.8-0.2-1.2c-0.1-0.5-0.2-1-0.3-1.6
		c-0.1-0.4-0.2-0.7-0.2-1.1c-0.1-0.5-0.2-1.1-0.4-1.6c0-0.2-0.1-0.4-0.2-0.6c-0.3-1.4-0.7-2.8-1.1-4.2c0,0,0-0.1,0-0.1
		c-0.2-0.6-0.3-1.3-0.5-1.9c-0.1-0.2-0.1-0.5-0.2-0.7c-0.2-0.6-0.3-1.2-0.5-1.8c-0.1-0.2-0.1-0.5-0.2-0.7c-0.2-0.6-0.4-1.2-0.5-1.8
		c-0.1-0.2-0.1-0.4-0.2-0.6c-0.2-0.6-0.4-1.3-0.6-1.9c0-0.1-0.1-0.2-0.1-0.3c-1.2-3.8-2.4-7.5-3.7-10.9c0,0,0,0,0,0
		c-1-0.4-2-0.7-3-0.7c-1.2-0.1-2.5,0.2-3.6,0.6c14.4,45.6,20.3,111.4-66.2,111.4H54.7c-20.6,0-36-3.7-47.2-10c1.1,2.1,2.4,4.1,3.8,6
		c2.9,2.2,6.1,4.1,9.8,5.9c0.1,0,0.1,0.1,0.2,0.1c0.9,0.4,1.7,0.8,2.6,1.2c0.1,0,0.2,0.1,0.3,0.1c0.9,0.4,1.7,0.7,2.6,1
		c0.1,0,0.2,0.1,0.2,0.1c0.9,0.3,1.9,0.7,2.8,1c0.1,0,0.2,0.1,0.3,0.1c0.9,0.3,1.9,0.6,2.9,0.9c0.2,0.1,0.5,0.1,0.8,0.2
		c0.9,0.2,1.7,0.5,2.6,0.7c0.3,0.1,0.6,0.1,0.9,0.2c0.9,0.2,1.8,0.4,2.7,0.6c0.3,0.1,0.7,0.1,1.1,0.2c0.9,0.2,1.7,0.3,2.6,0.5
		c0.5,0.1,1.1,0.1,1.6,0.2c0.8,0.1,1.5,0.2,2.3,0.3c0.6,0.1,1.1,0.1,1.7,0.2c0.8,0.1,1.5,0.2,2.3,0.2c0.7,0.1,1.4,0.1,2.1,0.2
		c0.7,0,1.4,0.1,2.1,0.1c1.1,0.1,2.3,0.1,3.5,0.1c0.3,0,0.6,0,0.9,0c1.5,0,3,0.1,4.5,0.1h11.7c1.6,0,3.1,0,4.7-0.1
		c0.5,0,1,0,1.5-0.1c1,0,2-0.1,3-0.1c0.6,0,1.1-0.1,1.6-0.1c0.9-0.1,1.8-0.1,2.7-0.2c0.5,0,1.1-0.1,1.6-0.2c0.9-0.1,1.8-0.2,2.6-0.3
		c0.5-0.1,1-0.1,1.5-0.2c0.9-0.1,1.9-0.3,2.8-0.4c0.4-0.1,0.7-0.1,1.1-0.2c1.3-0.2,2.5-0.5,3.7-0.7c0.2,0,0.3-0.1,0.5-0.1
		c1-0.2,2-0.5,3-0.7c0.4-0.1,0.8-0.2,1.1-0.3c0.8-0.2,1.5-0.4,2.3-0.7c0.4-0.1,0.8-0.3,1.2-0.4c0.7-0.2,1.4-0.5,2.1-0.7
		c0.4-0.1,0.8-0.3,1.2-0.4c0.7-0.3,1.3-0.5,2-0.8c0.3-0.1,0.7-0.3,1-0.4c0.8-0.3,1.5-0.7,2.3-1c0.2-0.1,0.4-0.2,0.6-0.3
		c0.9-0.5,1.8-0.9,2.7-1.4c0.2-0.1,0.3-0.2,0.5-0.3c0.7-0.4,1.4-0.8,2-1.2c0.3-0.2,0.5-0.3,0.8-0.5c0.5-0.4,1.1-0.7,1.6-1.1
		c0.3-0.2,0.6-0.4,0.8-0.6c0.5-0.4,1-0.7,1.5-1.1c0.3-0.2,0.5-0.4,0.8-0.6c0.5-0.4,1-0.8,1.5-1.2c0.2-0.2,0.4-0.4,0.6-0.6
		c0.6-0.5,1.2-1.1,1.8-1.7c0.1-0.1,0.1-0.1,0.2-0.2c0.6-0.6,1.2-1.3,1.8-2c0.1-0.2,0.3-0.3,0.4-0.5c0.4-0.5,0.9-1,1.3-1.5
		c0.2-0.2,0.4-0.5,0.5-0.7c0.4-0.5,0.7-0.9,1-1.4c0.2-0.3,0.4-0.5,0.5-0.8c0.3-0.5,0.6-1,0.9-1.4c0.2-0.2,0.3-0.5,0.5-0.8
		c0.3-0.5,0.6-1.1,0.9-1.6c0.1-0.2,0.2-0.4,0.3-0.6c0.8-1.5,1.6-3.1,2.2-4.7c0.1-0.2,0.2-0.4,0.3-0.7c0.2-0.6,0.5-1.2,0.7-1.7
		c0.1-0.3,0.2-0.6,0.3-0.8c0.2-0.5,0.4-1.1,0.5-1.6c0.1-0.3,0.2-0.6,0.3-0.9c0.2-0.6,0.3-1.1,0.5-1.7c0.1-0.3,0.2-0.6,0.2-0.9
		c0.2-0.6,0.3-1.3,0.5-1.9c0.1-0.2,0.1-0.4,0.2-0.7c0.2-0.9,0.4-1.7,0.5-2.6c0-0.1,0-0.2,0-0.3c0.1-0.8,0.3-1.5,0.4-2.3
		c0-0.3,0.1-0.6,0.1-0.9c0.1-0.6,0.1-1.2,0.2-1.8c0-0.3,0.1-0.7,0.1-1c0.1-0.6,0.1-1.1,0.1-1.7c0-0.4,0.1-0.7,0.1-1.1
		c0-0.6,0.1-1.1,0.1-1.7c0-0.3,0-0.7,0-1c0-0.6,0-1.3,0-1.9c0-0.3,0-0.5,0-0.8C151.1,88,151.1,87.1,151.1,86.2z"/>
	<path class="st7" d="M67.7,23.3c-1.2,0-2.3,0.1-3.3,0.3c-0.9-0.3-2-0.4-3.2-0.5c-11-0.3-23.8-8.7-23.8-8.7C37.8,22.2,50,34,61,34.2
		c1.2,0,2.3-0.1,3.3-0.3c0.9,0.3,2,0.4,3.2,0.5c11,0.3,23.8-10.8,24.5-18.5C91.9,15.9,78.7,23.6,67.7,23.3z"/>
	<path class="st8" d="M90.2,16.9c-3,7.3-14.1,15.8-23.7,15.6c-1.2,0-2.3-0.2-3.2-0.5c-1,0.2-2,0.3-3.3,0.3
		c-8.5-0.2-17.7-7.3-21.6-14c3.1,7.3,13.2,15.8,22.6,16c1.2,0,2.3-0.1,3.3-0.3c0.9,0.3,2,0.4,3.2,0.5c11,0.3,23.8-10.8,24.5-18.5
		C91.9,15.9,91.3,16.3,90.2,16.9z"/>
	<path class="st9" d="M61.2,25.2c1.2,0,2.3,0.2,3.2,0.5c1-0.2,2-0.3,3.3-0.3c9.7,0.3,21.1-5.7,23.7-7.2c0.3-0.8,0.5-1.6,0.5-2.3
		c0,0-13.2,7.7-24.2,7.4c-1.2,0-2.3,0.1-3.3,0.3c-0.9-0.3-2-0.4-3.2-0.5c-11-0.3-23.8-8.7-23.8-8.7c0,0.7,0.2,1.5,0.4,2.2
		C40,18.1,51.4,24.9,61.2,25.2z"/>
	<path class="st0" d="M91.8,16c0.1,0,0.1-0.1,0.1-0.1S91.9,15.9,91.8,16z"/>
	<path class="st0" d="M91.7,16.1C91.7,16,91.7,16,91.7,16.1C91.7,16,91.7,16,91.7,16.1z"/>
	<path class="st0" d="M91.8,16.9c0,0.1,0,0.1,0,0.2C91.7,17.1,91.8,17,91.8,16.9z"/>
	<path class="st0" d="M90.5,16.7C90.5,16.7,90.6,16.7,90.5,16.7C90.6,16.7,90.5,16.7,90.5,16.7z"/>
	<path class="st0" d="M90.8,16.5c0,0,0.1,0,0.1-0.1C90.9,16.5,90.9,16.5,90.8,16.5z"/>
	<path class="st0" d="M91.2,16.3C91.2,16.3,91.2,16.3,91.2,16.3C91.2,16.3,91.2,16.3,91.2,16.3z"/>
	<path class="st0" d="M91.4,16.2C91.5,16.2,91.5,16.1,91.4,16.2C91.5,16.1,91.5,16.2,91.4,16.2z"/>
	<path class="st7" d="M88.7,19.6c1.2-0.6,2.2-1.1,2.7-1.4c0.1-0.4,0.2-0.7,0.3-1.1c0-0.1,0-0.1,0-0.2c0.1-0.3,0.1-0.7,0.2-1
		c0,0,0,0-0.1,0.1c0,0-0.1,0-0.1,0.1c0,0,0,0-0.1,0c0,0-0.1,0-0.1,0.1c0,0-0.1,0-0.1,0c-0.1,0-0.1,0.1-0.2,0.1c0,0-0.1,0-0.1,0
		c-0.1,0-0.1,0.1-0.2,0.1c0,0-0.1,0-0.1,0.1c-0.1,0-0.2,0.1-0.3,0.1c0,0-0.1,0-0.1,0.1c-0.1,0.1-0.2,0.1-0.3,0.2c0,0,0,0,0,0
		C89.8,17.8,89.3,18.7,88.7,19.6z"/>
</g>
</svg>
